<svg width="12" height="12" viewBox="0 0 12 12" fill="none" xmlns="http://www.w3.org/2000/svg">
<path d="M6 0.000244141C2.68624 0.000244141 0 2.68658 0 6.00024C0 9.3141 2.68624 12.0002 6 12.0002C9.31376 12.0002 12 9.3141 12 6.00024C12 2.68658 9.31376 0.000244141 6 0.000244141ZM6 3.00024C6.41423 3.00024 6.75 3.33606 6.75 3.75024C6.75 4.16462 6.41423 4.50024 6 4.50024C5.58577 4.50024 5.25 4.16462 5.25 3.75024C5.25 3.33606 5.58577 3.00024 6 3.00024ZM7.125 9.00024H4.875C4.66791 9.00024 4.5 8.83253 4.5 8.62524C4.5 8.41815 4.66791 8.25024 4.875 8.25024H5.25V6.00024H4.875C4.66791 6.00024 4.5 5.83253 4.5 5.62524C4.5 5.41815 4.66791 5.25024 4.875 5.25024H6.375C6.58209 5.25024 6.75 5.41815 6.75 5.62524V8.25024H7.125C7.33209 8.25024 7.5 8.41815 7.5 8.62524C7.5 8.83253 7.33209 9.00024 7.125 9.00024Z" fill="#C9C9C9"/>
</svg>
