<svg width="34" height="34" viewBox="0 0 34 34" fill="none" xmlns="http://www.w3.org/2000/svg">
<path d="M17 34C26.3888 34 34 26.3888 34 17C34 7.61116 26.3888 0 17 0C7.61116 0 0 7.61116 0 17C0 26.3888 7.61116 34 17 34Z" fill="url(#paint0_linear_601_2)"/>
<path d="M29.1704 17.2071H26.1735C26.1735 11.0997 21.2052 6.14893 15.076 6.14893C9.02279 6.14893 4.10141 10.9785 3.98096 16.9813C3.85635 23.1863 9.69848 28.5745 15.9263 28.5745H16.7097C22.2003 28.5745 29.5594 24.2916 30.7092 19.0732C30.9215 18.1113 30.159 17.2071 29.1704 17.2071ZM10.6225 17.4792C10.6225 18.2959 9.95216 18.9639 9.13253 18.9639C8.31289 18.9639 7.64255 18.2956 7.64255 17.4792V15.0773C7.64255 14.2606 8.31289 13.5926 9.13253 13.5926C9.95216 13.5926 10.6225 14.2606 10.6225 15.0773V17.4792ZM15.7963 17.4792C15.7963 18.2959 15.126 18.9639 14.3064 18.9639C13.4867 18.9639 12.8164 18.2956 12.8164 17.4792V15.0773C12.8164 14.2606 13.487 13.5926 14.3064 13.5926C15.126 13.5926 15.7963 14.2606 15.7963 15.0773V17.4792Z" fill="url(#paint1_linear_601_2)"/>
<defs>
<linearGradient id="paint0_linear_601_2" x1="17" y1="0" x2="17" y2="34" gradientUnits="userSpaceOnUse">
<stop stop-color="#534BB1"/>
<stop offset="1" stop-color="#551BF9"/>
</linearGradient>
<linearGradient id="paint1_linear_601_2" x1="17.3619" y1="6.14893" x2="17.3619" y2="28.5745" gradientUnits="userSpaceOnUse">
<stop stop-color="white"/>
<stop offset="1" stop-color="white" stop-opacity="0.82"/>
</linearGradient>
</defs>
</svg>
