<svg width="22" height="18" viewBox="0 0 22 18" fill="none" xmlns="http://www.w3.org/2000/svg">
<path d="M4.20401 13.3366C4.32579 13.1952 4.49324 13.1128 4.67083 13.1128H20.7761C21.0704 13.1128 21.2175 13.525 21.0095 13.7664L17.828 17.4585C17.7062 17.5998 17.5388 17.6823 17.3612 17.6823H1.25595C0.961652 17.6823 0.814502 17.2701 1.02254 17.0286L4.20401 13.3366Z" fill="white"/>
<path d="M4.20401 1.11396C4.33087 0.996189 4.49831 0.92749 4.67083 0.92749H20.7761C21.0704 0.92749 21.2175 1.27099 21.0095 1.47218L17.828 4.54891C17.7062 4.66668 17.5388 4.73538 17.3612 4.73538H1.25595C0.961652 4.73538 0.814502 4.39189 1.02254 4.1907L4.20401 1.11396Z" fill="white"/>
<path d="M17.828 7.58735C17.7062 7.46958 17.5388 7.40088 17.3612 7.40088H1.25595C0.961652 7.40088 0.814502 7.74437 1.02254 7.94556L4.20401 11.0223C4.32579 11.1401 4.49324 11.2088 4.67083 11.2088H20.7761C21.0704 11.2088 21.2175 10.8653 21.0095 10.6641L17.828 7.58735Z" fill="white"/>
</svg>
