<svg width="529" height="556" viewBox="0 0 529 556" fill="none" xmlns="http://www.w3.org/2000/svg">
<path d="M484.015 40.3398C470.282 25.5394 450.323 17.1051 430.155 15.9768C409.986 14.8514 389.73 20.7307 372.401 31.1025C364.875 36.0907 368.662 41.6204 385.139 36.4801C394.293 33.6696 399.011 32.8667 405.992 32.818C410.827 32.7845 412.27 39.5308 407.789 41.3406C407.672 41.3862 407.556 41.4317 407.442 41.4683C387.964 48.0198 367.52 51.7001 346.977 52.351C342.43 52.4941 337.503 52.6065 334.371 56.515C332.864 58.3947 332.615 61.0531 333.944 63.0634C335.528 65.4572 338.45 65.5394 341.057 65.4146C361.819 64.4048 381.787 56.9712 402.484 55.0702C429.705 52.567 457.688 60.1952 480.048 75.8594C483.668 80.6682 487.156 85.5833 490.616 90.4651L500.844 96.2077C504.696 76.3947 497.746 55.1402 484.015 40.3398Z" fill="url(#paint0_linear_406_215)"/>
<path d="M339.159 234.31C358.981 246.791 385.266 250.309 406.388 240.181C407.67 239.566 408.969 238.903 410.385 238.776C411.8 238.651 413.381 239.211 414.01 240.482C414.625 241.73 414.139 243.299 413.192 244.32C412.246 245.343 410.933 245.933 409.645 246.462C387.169 255.739 360.827 255.185 338.761 244.972" fill="url(#paint1_linear_406_215)"/>
<path d="M343.449 229.767C350.096 233.946 356.893 235.728 364.79 236.291C366.982 236.445 369.652 236.324 371.263 234.608C371.691 234.152 372.005 233.614 372.209 233.039C373.031 230.713 371.832 228.167 369.6 227.111C361.651 223.345 350.774 212.089 346.652 208.74C343.745 206.376 346.515 211.536 344.409 208.54C342.581 205.942 340.17 202.551 336.859 201.793C332.633 200.828 330.337 205.388 329.671 208.804C327.975 217.49 336.929 225.663 343.449 229.767Z" fill="url(#paint2_linear_406_215)"/>
<path d="M493.14 138.12C489.665 163.8 478.146 188.334 460.601 207.419C458.591 209.607 456.166 211.876 453.194 211.887C448.512 211.906 445.73 206.042 446.844 201.497C447.959 196.954 451.498 193.487 454.552 189.936C463.252 179.82 468.928 167.137 470.672 153.912C471.162 150.186 470.088 144.976 466.325 145.037C460.232 145.137 462.659 157.79 456.684 158.973C453.91 159.524 451.441 156.665 451.197 153.851C450.957 151.038 452.212 148.343 453.24 145.715C459.676 129.26 457.585 109.733 447.809 95.0117L493.14 138.12Z" fill="url(#paint3_linear_406_215)"/>
<path d="M78.2147 211.863C67.3463 219.094 58.3078 229.042 52.1552 240.545C51.0044 242.696 49.2082 245.281 46.8307 244.728C45.3754 244.39 44.4377 242.863 44.3252 241.373C44.2156 239.882 44.7544 238.429 45.3449 237.053C48.5902 229.521 53.6682 222.779 60.0187 217.582L78.2147 211.863Z" fill="url(#paint4_linear_406_215)"/>
<path d="M46.5201 191.437C22.3147 210.208 5.75956 238.565 1.37267 268.869C1.21437 269.955 1.60404 271.077 2.4595 271.764C4.67577 273.55 7.37001 270.426 8.13414 267.777C9.42493 263.308 9.85723 258.589 11.6047 254.279C12.4236 252.262 13.6322 250.303 15.1604 248.74C16.8775 246.984 19.7361 248.965 18.7375 251.209C12.3536 265.56 9.02613 281.263 9.08093 296.967C9.08702 298.607 9.18748 300.411 10.7249 301.408C12.1283 302.318 13.967 302.083 15.2549 301.019C17.7725 298.932 17.8821 295.675 18.0464 292.666C19.7483 261.034 36.6687 230.561 62.6307 212.378L46.5201 191.437Z" fill="url(#paint5_linear_406_215)"/>
<path d="M116.567 115.339C136.462 119.886 156.177 107.583 171.429 94.036C186.681 80.4887 201.282 64.4991 220.994 59.2128C225.597 57.9779 232.255 58.708 232.784 63.4376C233.281 67.8631 227.807 70.1839 223.514 71.373C208.186 75.6191 193.96 83.7766 182.562 94.8601C178.599 98.7139 175.192 105.856 179.743 108.997C186.149 113.42 193.769 100.664 200.405 100.627C202.134 100.618 203.404 102.279 202.938 103.942C201.029 110.786 194.582 115.89 187.896 118.758C180.477 121.942 172.327 123.263 165.081 126.821C153.511 132.506 145.436 143.233 136.334 152.359C127.231 161.482 115.228 169.68 102.454 167.904" fill="url(#paint6_linear_406_215)"/>
<path d="M478.137 210.541L478.231 212.797C478.541 212.062 478.565 211.255 478.137 210.541Z" fill="url(#paint7_linear_406_215)"/>
<path d="M202.38 284.177C195.784 288.803 189.187 293.43 182.59 298.056C180.776 299.327 178.897 300.629 176.732 301.098C174.568 301.566 172.016 300.991 170.787 299.149C169.663 297.463 169.925 295.155 170.872 293.363C171.818 291.571 173.341 290.169 174.775 288.74C180.741 282.794 185.643 275.785 189.183 268.145L202.38 284.177Z" fill="url(#paint8_linear_406_215)"/>
<path d="M209.563 281.899C196.025 296.77 182.358 311.759 166.016 323.487C163.69 325.156 161.158 326.815 158.299 326.997C155.44 327.179 152.253 325.309 152.024 322.456C151.683 318.161 157.087 315.824 156.664 311.47C156.186 306.56 149.014 302.585 144.487 302.362C134.102 301.852 121.21 314.358 113.712 320.375C110.439 323 106.996 326.22 106.789 330.406C105.805 350.17 132.529 321.154 127.834 344.234C126.583 350.383 131.703 356.518 137.781 358.113C143.853 359.706 150.348 357.705 155.811 354.617C161.279 351.531 166.074 347.379 171.453 344.139C174.869 342.081 179.779 340.604 182.428 343.582C185.646 347.199 181.953 352.561 179.199 356.539C173.782 364.363 172.005 374.595 174.465 383.784C175.304 386.918 176.732 390.1 179.814 391.597C181.363 392.348 183.186 392.446 184.712 391.645C187.838 390.006 187.805 386.095 186.937 382.989C185.558 374.92 191.735 375.319 191.926 378.944C192.779 394.836 204.423 405.853 220.023 409.548L209.563 281.899Z" fill="url(#paint9_linear_406_215)"/>
<path d="M404.007 407.952V380.343C404.007 366.038 394.974 347.314 386.958 335.462C378.943 323.608 374.657 309.629 374.657 295.324V258.245C374.657 252.824 370.257 248.43 364.833 248.43H361.703C351.623 248.43 343.453 256.593 343.453 266.664V353.653V398.096H343.449L223.718 432.196L236.788 468.391C240.03 477.376 245.233 485.426 251.925 492.014C252.101 492.188 252.281 492.359 252.457 492.535C252.813 492.875 253.173 493.217 253.538 493.551C254.631 494.551 255.757 495.521 256.923 496.446C257.313 496.753 257.705 497.06 258.101 497.362C258.3 497.508 258.498 497.659 258.695 497.808C259.295 498.256 259.904 498.688 260.515 499.107C261.134 499.531 261.758 499.941 262.388 500.345C262.81 500.613 263.234 500.874 263.664 501.133C264.945 501.908 266.261 502.639 267.605 503.326L284.048 556H401.83L382.462 477.966C382.523 477.896 404.007 457.824 404.007 407.952Z" fill="url(#paint10_linear_406_215)"/>
<path d="M364.647 467.39L340.725 478.623C322.939 486.972 313.713 506.857 318.827 525.813L326.97 555.991H284.042L267.6 503.317C266.254 502.63 264.939 501.9 263.658 501.125C263.228 500.866 262.805 500.604 262.382 500.337C261.751 499.935 261.127 499.521 260.51 499.099C259.895 498.676 259.289 498.241 258.689 497.8C258.491 497.651 258.293 497.502 258.096 497.352C257.7 497.052 257.307 496.748 256.917 496.437C255.754 495.513 254.625 494.543 253.531 493.542C253.167 493.207 252.807 492.87 252.451 492.526C252.275 492.353 252.095 492.182 251.919 492.006C245.227 485.418 240.024 477.367 236.782 468.382L223.712 432.186L343.443 398.087V266.658C343.443 258.568 348.719 251.705 356.022 249.324L356.025 423.841V452.008C356.029 458.287 359.295 464.112 364.647 467.39Z" fill="url(#paint11_linear_406_215)"/>
<path d="M254.135 314.252L281.473 292.249L218.464 214.099C212.381 206.556 201.334 205.366 193.784 211.444C186.234 217.521 185.044 228.559 191.126 236.102L254.135 314.252Z" fill="url(#paint12_linear_406_215)"/>
<path d="M211.176 239.779C206.077 243.807 200.981 247.834 195.881 251.861C194.925 252.616 193.932 253.391 192.754 253.698C191.577 254.008 190.151 253.725 189.473 252.712C188.583 251.387 189.348 249.579 190.344 248.332C193.09 244.902 197.47 242.946 199.803 239.22C201.196 236.99 201.717 234.338 202.801 231.944C204.695 227.759 208.397 224.425 212.762 222.977L211.176 239.779Z" fill="url(#paint13_linear_406_215)"/>
<path d="M219.679 457.9H336.134C342.819 457.9 348.235 452.486 348.235 445.81V179.693C348.235 173.013 342.816 167.603 336.134 167.603H219.679C212.994 167.603 207.577 173.017 207.577 179.693V445.807C207.575 452.486 212.994 457.9 219.679 457.9Z" fill="#24292E"/>
<path d="M304.159 448.934H251.653V450.926H304.159V448.934Z" fill="#606060"/>
<path d="M304.759 175.151H253.087V177.143H304.759V175.151Z" fill="#606060"/>
<path d="M340.85 188.586H214.958V440.692H340.85V188.586Z" fill="white"/>
<path d="M297.452 284.865L282.366 296.028L285.171 289.449L297.452 284.865Z" fill="#E17726" stroke="#E17726" stroke-width="0.25" stroke-linecap="round" stroke-linejoin="round"/>
<path d="M262.653 284.865L277.605 296.132L274.934 289.449L262.653 284.865Z" fill="#E27625" stroke="#E27625" stroke-width="0.25" stroke-linecap="round" stroke-linejoin="round"/>
<path d="M292.02 310.748L288.006 316.88L296.601 319.247L299.064 310.882L292.02 310.748Z" fill="#E27625" stroke="#E27625" stroke-width="0.25" stroke-linecap="round" stroke-linejoin="round"/>
<path d="M261.057 310.882L263.504 319.247L272.085 316.88L268.085 310.748L261.057 310.882Z" fill="#E27625" stroke="#E27625" stroke-width="0.25" stroke-linecap="round" stroke-linejoin="round"/>
<path d="M271.622 300.389L269.234 303.991L277.74 304.378L277.457 295.224L271.622 300.389Z" fill="#E27625" stroke="#E27625" stroke-width="0.25" stroke-linecap="round" stroke-linejoin="round"/>
<path d="M288.484 300.389L282.56 295.12L282.366 304.378L290.872 303.991L288.484 300.389Z" fill="#E27625" stroke="#E27625" stroke-width="0.25" stroke-linecap="round" stroke-linejoin="round"/>
<path d="M272.085 316.88L277.233 314.395L272.801 310.942L272.085 316.88Z" fill="#E27625" stroke="#E27625" stroke-width="0.25" stroke-linecap="round" stroke-linejoin="round"/>
<path d="M282.874 314.395L288.007 316.88L287.305 310.942L282.874 314.395Z" fill="#E27625" stroke="#E27625" stroke-width="0.25" stroke-linecap="round" stroke-linejoin="round"/>
<path d="M288.007 316.88L282.874 314.395L283.291 317.729L283.247 319.143L288.007 316.88Z" fill="#D5BFB2" stroke="#D5BFB2" stroke-width="0.25" stroke-linecap="round" stroke-linejoin="round"/>
<path d="M272.085 316.88L276.86 319.143L276.83 317.729L277.233 314.395L272.085 316.88Z" fill="#D5BFB2" stroke="#D5BFB2" stroke-width="0.25" stroke-linecap="round" stroke-linejoin="round"/>
<path d="M276.949 308.739L272.681 307.489L275.695 306.104L276.949 308.739Z" fill="#233447" stroke="#233447" stroke-width="0.25" stroke-linecap="round" stroke-linejoin="round"/>
<path d="M283.157 308.739L284.41 306.104L287.44 307.489L283.157 308.739Z" fill="#233447" stroke="#233447" stroke-width="0.25" stroke-linecap="round" stroke-linejoin="round"/>
<path d="M272.084 316.88L272.831 310.748L268.085 310.882L272.084 316.88Z" fill="#CC6228" stroke="#CC6228" stroke-width="0.25" stroke-linecap="round" stroke-linejoin="round"/>
<path d="M287.275 310.748L288.006 316.88L292.021 310.882L287.275 310.748Z" fill="#CC6228" stroke="#CC6228" stroke-width="0.25" stroke-linecap="round" stroke-linejoin="round"/>
<path d="M290.872 303.991L282.366 304.378L283.157 308.739L284.41 306.104L287.44 307.489L290.872 303.991Z" fill="#CC6228" stroke="#CC6228" stroke-width="0.25" stroke-linecap="round" stroke-linejoin="round"/>
<path d="M272.682 307.489L275.696 306.104L276.949 308.739L277.74 304.378L269.234 303.991L272.682 307.489Z" fill="#CC6228" stroke="#CC6228" stroke-width="0.25" stroke-linecap="round" stroke-linejoin="round"/>
<path d="M269.234 303.991L272.801 310.942L272.681 307.489L269.234 303.991Z" fill="#E27525" stroke="#E27525" stroke-width="0.25" stroke-linecap="round" stroke-linejoin="round"/>
<path d="M287.44 307.489L287.306 310.942L290.872 303.991L287.44 307.489Z" fill="#E27525" stroke="#E27525" stroke-width="0.25" stroke-linecap="round" stroke-linejoin="round"/>
<path d="M277.74 304.378L276.949 308.739L277.949 313.889L278.173 307.101L277.74 304.378Z" fill="#E27525" stroke="#E27525" stroke-width="0.25" stroke-linecap="round" stroke-linejoin="round"/>
<path d="M282.366 304.378L281.948 307.087L282.157 313.889L283.157 308.739L282.366 304.378Z" fill="#E27525" stroke="#E27525" stroke-width="0.25" stroke-linecap="round" stroke-linejoin="round"/>
<path d="M283.157 308.739L282.157 313.889L282.873 314.395L287.305 310.942L287.439 307.489L283.157 308.739Z" fill="#F5841F" stroke="#F5841F" stroke-width="0.25" stroke-linecap="round" stroke-linejoin="round"/>
<path d="M272.681 307.489L272.8 310.942L277.232 314.395L277.949 313.889L276.949 308.739L272.681 307.489Z" fill="#F5841F" stroke="#F5841F" stroke-width="0.25" stroke-linecap="round" stroke-linejoin="round"/>
<path d="M283.247 319.143L283.291 317.729L282.903 317.401H277.203L276.83 317.729L276.86 319.143L272.085 316.88L273.756 318.249L277.143 320.586H282.948L286.35 318.249L288.007 316.88L283.247 319.143Z" fill="#C0AC9D" stroke="#C0AC9D" stroke-width="0.25" stroke-linecap="round" stroke-linejoin="round"/>
<path d="M282.873 314.394L282.157 313.888H277.949L277.233 314.394L276.83 317.728L277.203 317.401H282.903L283.291 317.728L282.873 314.394Z" fill="white" stroke="white" stroke-width="0.25" stroke-linecap="round" stroke-linejoin="round"/>
<path d="M298.094 296.757L299.363 290.596L297.453 284.865L282.874 295.656L288.484 300.389L296.408 302.696L298.154 300.657L297.393 300.106L298.602 299.005L297.676 298.291L298.885 297.368L298.094 296.757Z" fill="#763E1A" stroke="#763E1A" stroke-width="0.25" stroke-linecap="round" stroke-linejoin="round"/>
<path d="M260.744 290.596L262.027 296.757L261.206 297.368L262.43 298.291L261.505 299.005L262.713 300.106L261.952 300.657L263.698 302.696L271.622 300.389L277.233 295.656L262.654 284.865L260.744 290.596Z" fill="#763E1A" stroke="#763E1A" stroke-width="0.25" stroke-linecap="round" stroke-linejoin="round"/>
<path d="M296.408 302.696L288.484 300.389L290.872 303.991L287.306 310.942L292.021 310.882H299.064L296.408 302.696Z" fill="#F5841F" stroke="#F5841F" stroke-width="0.25" stroke-linecap="round" stroke-linejoin="round"/>
<path d="M271.622 300.389L263.698 302.696L261.057 310.882H268.085L272.801 310.942L269.234 303.991L271.622 300.389Z" fill="#F5841F" stroke="#F5841F" stroke-width="0.25" stroke-linecap="round" stroke-linejoin="round"/>
<path d="M282.366 304.378L282.873 295.656L285.171 289.449H274.935L277.233 295.656L277.74 304.378L277.934 307.117L277.949 313.889H282.157L282.172 307.117L282.366 304.378Z" fill="#F5841F" stroke="#F5841F" stroke-width="0.25" stroke-linecap="round" stroke-linejoin="round"/>
<path d="M281.419 383.649C292.204 383.649 300.946 374.907 300.946 364.122C300.946 353.338 292.204 344.595 281.419 344.595C270.635 344.595 261.892 353.338 261.892 364.122C261.892 374.907 270.635 383.649 281.419 383.649Z" fill="url(#paint14_linear_406_215)"/>
<path d="M295.399 364.36H291.956C291.956 357.345 286.25 351.658 279.209 351.658C272.256 351.658 266.603 357.205 266.465 364.101C266.322 371.228 273.032 377.417 280.186 377.417H281.086C287.393 377.417 295.846 372.498 297.166 366.503C297.41 365.399 296.534 364.36 295.399 364.36ZM274.094 364.672C274.094 365.611 273.324 366.378 272.382 366.378C271.441 366.378 270.671 365.61 270.671 364.672V361.914C270.671 360.975 271.441 360.208 272.382 360.208C273.324 360.208 274.094 360.975 274.094 361.914V364.672ZM280.037 364.672C280.037 365.611 279.267 366.378 278.325 366.378C277.384 366.378 276.614 365.61 276.614 364.672V361.914C276.614 360.975 277.384 360.208 278.325 360.208C279.267 360.208 280.037 360.975 280.037 361.914V364.672Z" fill="url(#paint15_linear_406_215)"/>
<path d="M340.852 205.27C332.749 201.595 323.314 200.205 314.513 201.355C295.909 203.789 279.661 214.765 264.565 225.9C260.332 229.021 254.82 232.315 250.186 229.824C244.307 226.664 246.1 217.326 250.898 212.688C255.697 208.049 262.43 205.555 266.525 200.287C267.533 198.991 268.385 197.319 267.877 195.758C266.766 192.364 261.676 193.621 258.649 195.518C247.354 202.602 236.063 209.688 224.769 216.773C221.636 218.737 218.413 220.732 214.958 221.971V238.717C216.544 237.038 217.977 235.195 219.841 233.839C222.403 231.971 226.413 231.354 228.489 233.748C231.196 236.865 228.437 241.564 228.285 245.689C227.99 253.667 238.438 258.293 246.012 255.75C253.586 253.208 258.762 246.431 264.031 240.433C272.589 230.694 282.812 222.031 294.971 217.523C307.134 213.02 321.454 213.141 332.459 220.006C335.695 222.025 338.542 224.687 340.85 227.75V205.27H340.852Z" fill="url(#paint16_linear_406_215)"/>
<path d="M338.039 367.726C334.627 372.526 330.651 376.93 326.234 380.826C316.668 389.264 305.012 395.253 292.5 397.839C279.869 400.442 266.698 399.498 254.379 395.831C243.912 392.716 235.099 386.694 228.397 378.056C221.959 369.743 217.761 359.737 215.825 349.44C215.439 347.388 215.152 345.307 214.958 343.218V411.994C217.886 415.723 221.655 418.846 225.561 421.429C230.172 424.476 235.205 427.21 240.152 429.662C245.096 432.111 250.658 434.441 256.29 434.179C261.191 433.948 266.425 431.049 265.182 425.392C264.025 421.124 259.937 417.521 253.164 413.129C251.635 412.139 251.394 409.971 252.722 408.715C252.731 408.706 252.747 408.694 252.756 408.685C253.922 407.583 255.93 407.243 257.562 407.112C266.226 406.418 274.52 410.315 283.12 409.153C289.202 408.332 295.208 406.644 301.365 406.433C303.382 406.363 306.099 406.288 307.76 407.653C309.504 409.089 309.282 411.964 308.476 413.895C307.858 415.367 304.436 421.93 303.988 423.156C302.506 427.199 302.762 432.043 306.881 434.404C311.38 436.977 316.382 434.121 320.373 431.922C325.254 429.225 329.606 425.766 333.513 421.794C336.204 419.053 338.709 416.158 340.859 413.013V363.56C339.945 364.983 339.005 366.37 338.039 367.726Z" fill="url(#paint17_linear_406_215)"/>
<path d="M340.851 188.586V205.27C332.748 201.596 323.317 200.205 314.509 201.355C295.905 203.789 279.658 214.766 264.563 225.9C260.332 229.025 254.819 232.315 250.186 229.824C244.306 226.664 246.1 217.326 250.9 212.688C255.698 208.047 262.43 205.553 266.525 200.284C267.535 198.989 268.388 197.316 267.876 195.756C266.765 192.361 261.675 193.617 258.648 195.515C247.354 202.599 236.06 209.683 224.769 216.773C221.639 218.738 218.412 220.73 214.959 221.968V188.586H340.851Z" fill="url(#paint18_linear_406_215)"/>
<path d="M340.852 413.013V440.692H214.958V411.99C217.886 415.719 221.655 418.844 225.561 421.425C230.172 424.473 235.205 427.208 240.152 429.659C245.096 432.108 250.658 434.437 256.29 434.176C261.191 433.945 266.425 431.046 265.182 425.389C264.025 421.122 259.937 417.517 253.164 413.125C251.635 412.137 251.394 409.969 252.722 408.712C252.731 408.703 252.747 408.691 252.756 408.681C253.922 407.581 255.93 407.24 257.562 407.109C266.226 406.416 274.52 410.311 283.12 409.15C289.202 408.329 295.208 406.64 301.365 406.431C303.382 406.361 306.099 406.284 307.76 407.651C309.504 409.086 309.282 411.96 308.476 413.891C307.858 415.364 304.436 421.928 303.988 423.154C302.506 427.195 302.762 432.041 306.881 434.402C311.38 436.974 316.382 434.119 320.373 431.92C325.254 429.221 329.606 425.764 333.513 421.791C336.195 419.053 338.704 416.158 340.852 413.013Z" fill="url(#paint19_linear_406_215)"/>
<path d="M221.17 302.068C222.51 299.246 224.063 296.536 225.533 293.783C228.272 288.666 230.86 283.283 230.906 277.358C230.934 274.363 230.227 270.411 226.717 269.778C223.652 269.225 220.583 271.424 218.319 273.2C217.143 274.122 216.019 275.116 214.958 276.172V328.69C215.463 322.802 216.537 316.962 217.998 311.35C218.829 308.176 219.758 305.042 221.17 302.068Z" fill="url(#paint20_linear_406_215)"/>
<path d="M335.114 243.383C337.12 244.028 339.047 244.904 340.852 245.988V235.651C331.214 226.609 315.78 222.676 303.288 224.875C291.434 226.958 281.104 234.457 272.705 242.729C268.765 246.614 265.314 250.856 261.797 255.111C259.042 258.445 256.187 261.724 253.915 265.423C251.833 268.817 249.696 273.294 251.062 277.343C252.424 281.366 256.936 284.302 261.116 282.839C265.261 281.392 268.15 277.349 270.577 273.915C273.588 269.66 276.66 265.542 280.602 262.083C284.688 258.504 291.573 253.369 296.625 251.446C299.977 250.428 303.088 252.174 298.055 255.805C295.276 258.436 292.003 261.067 293.833 265.314C296.067 270.505 301.453 270.208 306.038 268.738C311.441 267.004 317.317 265.295 322.684 268.154C327.277 270.597 330.737 275.311 333.25 279.742C337.955 288.034 340.387 297.752 340.85 307.305V273.511C337.58 267.478 333.665 261.792 329.186 256.588C327.767 254.938 326.273 253.303 325.39 251.316C324.507 249.33 324.343 246.875 325.566 245.075C327.519 242.206 331.807 242.323 335.114 243.383Z" fill="url(#paint21_linear_406_215)"/>
<path d="M225.874 305.305C230.578 301.691 231.832 295.137 228.797 290.041L210.966 260.124C205.501 253.348 195.574 252.28 188.791 257.738C180.693 264.006 180.139 276.026 187.628 283.01L210.747 304.577C214.93 308.486 221.332 308.793 225.874 305.305Z" fill="url(#paint22_linear_406_215)"/>
<path d="M219.94 374.628C225.421 367.809 225.238 358.574 219.536 354.003L212.195 348.538C206.494 343.966 197.431 345.784 191.954 352.604C186.474 359.423 186.657 368.657 192.359 373.228L199.698 378.695C205.401 383.269 214.464 381.447 219.94 374.628Z" fill="url(#paint23_linear_406_215)"/>
<path d="M220.836 339.951C226.315 333.132 226.133 323.897 220.43 319.325L213.091 313.86C207.389 309.289 198.325 311.108 192.849 317.927C187.37 324.746 187.552 333.981 193.253 338.552L200.594 344.017C206.292 348.593 215.356 346.77 220.836 339.951Z" fill="url(#paint24_linear_406_215)"/>
<path d="M356.029 307.612C356.029 311.865 358.259 317.982 361.986 317.982C361.986 317.982 356.029 321.173 356.029 326.225L351.876 314.639L356.029 307.612Z" fill="url(#paint25_linear_406_215)"/>
<path d="M361.701 248.426C358.975 248.426 356.025 253.228 356.025 258.342V249.326C356.025 249.326 358.571 248.426 361.701 248.426Z" fill="#CED2D5"/>
<path d="M424.51 69.0006C423.227 67.1878 422.706 64.9402 423.067 62.7471L432.036 8.17505L432.04 8.15681C432.259 6.6056 433.108 5.21256 434.39 4.30616C434.395 4.30312 434.399 4.30008 434.405 4.294L439.425 0.741425L440.007 0.330811L438.168 9.63198L511.725 113.368L504.2 166.459L509.272 167.752L507.058 169.319C502.862 172.286 497.054 171.295 494.083 167.107L424.51 69.0006Z" fill="#24292E"/>
<path d="M518.254 111.945L510.671 165.443C510.239 168.488 506.306 169.44 504.525 166.931L432.62 65.527C431.346 63.7294 430.806 61.5091 431.117 59.3282L439.315 1.47735C439.535 -0.0586545 441.519 -0.542267 442.417 0.726075L516.677 105.454C518.015 107.337 518.577 109.66 518.254 111.945Z" fill="#606060"/>
<path d="M93.4698 211.003C92.3251 213.002 90.4255 214.501 88.1848 215.173L32.4339 231.92L32.4156 231.926C30.8479 232.434 29.1461 232.297 27.7152 231.543C27.7091 231.54 27.7031 231.536 27.7 231.534L22.0893 228.584L31.0822 225.672L96.6055 111.306L150.311 93.9203L149.269 88.7131L151.745 90.0149C156.433 92.4816 158.086 98.2242 155.44 102.844L93.4698 211.003Z" fill="#24292E"/>
<path d="M92.3343 106.002L146.451 88.4821C149.531 87.4844 152.191 90.6324 150.605 93.4003L86.5561 205.196C85.4206 207.18 83.5574 208.683 81.3502 209.397L22.8321 228.341C21.2764 228.842 19.934 227.254 20.7345 225.858L86.8818 110.4C88.0722 108.325 90.0206 106.75 92.3343 106.002Z" fill="#606060"/>
<path d="M156.664 298.254C158.162 298.449 159.677 298.005 161.048 297.372C163.712 296.143 166.028 294.176 167.673 291.751C172.233 285.026 165.246 280.978 159.958 285.757C157.333 288.129 148.323 297.163 156.664 298.254Z" fill="url(#paint26_linear_406_215)"/>
<path d="M74.3484 371.51C60.1191 374.272 42.0906 358.73 57.3426 340.145C68.2017 326.857 68.5123 335.982 67.9247 346.925C68.1835 353.778 69.2339 356.637 79.0213 358.036C88.8089 359.435 88.5775 368.749 74.3484 371.51Z" fill="url(#paint27_linear_406_215)"/>
<path d="M57.4888 200.795C54.548 201.431 50.9375 200.145 50.0881 197.261C49.1899 194.211 51.6163 191.275 53.8539 189.016C57.0352 185.801 60.2197 182.582 63.4009 179.367C64.4939 178.263 65.669 176.706 64.9688 175.322C63.9641 173.336 60.9472 174.534 59.2272 175.945C54.8434 179.54 50.4595 183.133 46.0757 186.727L28.0289 218.218L83.938 200.169L97.3117 176.827C85.8529 181.934 75.0364 188.483 65.2123 196.285C62.853 198.155 60.4297 200.159 57.4888 200.795Z" fill="url(#paint28_linear_406_215)"/>
<path d="M98.3804 168.371C96.3528 165.549 97.1048 161.482 99.0562 158.609C101.011 155.732 103.93 153.691 106.551 151.402C109.584 148.753 112.33 145.606 113.672 141.813C115.018 138.017 114.75 133.485 112.235 130.34C111.486 129.407 110.515 128.503 110.436 127.31C110.314 125.51 112.217 124.321 113.855 123.557C120.217 120.583 126.583 117.608 132.946 114.633L143.857 95.5898L87.9474 113.639L46.0726 186.728C50.4565 183.133 54.8403 179.54 59.2242 175.945C60.9442 174.534 63.9611 173.338 64.9658 175.322C65.6659 176.706 64.4878 178.267 63.398 179.367C60.2166 182.582 57.0322 185.8 53.8509 189.015C51.6132 191.275 49.187 194.213 50.085 197.261C50.9344 200.148 54.545 201.431 57.4858 200.795C60.4266 200.159 62.8499 198.155 65.2063 196.285C75.0304 188.483 85.8469 181.934 97.3057 176.827L101.102 170.2C100.024 169.892 99.0349 169.278 98.3804 168.371Z" fill="white"/>
<path d="M113.855 123.552C112.22 124.315 110.314 125.504 110.436 127.305C110.515 128.497 111.489 129.4 112.235 130.335C114.75 133.48 115.018 138.012 113.672 141.807C112.326 145.603 109.583 148.748 106.551 151.397C103.933 153.684 101.011 155.728 99.0561 158.603C97.1017 161.48 96.3527 165.544 98.3802 168.366C99.0318 169.275 100.024 169.887 101.105 170.195L132.946 114.627C126.583 117.602 120.217 120.577 113.855 123.552Z" fill="url(#paint29_linear_406_215)"/>
<path d="M142.727 365.88C139.531 364.129 135.305 366.385 132.37 367.717C131.99 367.89 130.428 368.696 129.877 368.876C127.892 369.524 124.93 371.103 123.423 372.958C121.834 375.936 125.798 378.418 131.564 378.405C135.064 378.561 139.037 377.235 141.88 375.23C143.497 374.09 144.992 372.517 145.056 370.425C145.111 368.636 144.347 366.769 142.727 365.88Z" fill="url(#paint30_linear_406_215)"/>
<path d="M446.259 245.577C445.176 243.635 441.778 242.638 437.44 243.56C433.848 244.324 430.538 246.087 428.447 247.954C426.757 249.12 424.617 250.197 422.733 251.246C419.776 252.888 416.766 254.547 414.258 256.386C412.224 257.88 410.717 259.549 411.409 261.034C412.114 262.546 414.656 263.095 417.744 262.823C420.863 262.546 424.099 261.649 427.093 260.694C429.665 259.871 432.2 258.917 434.469 257.786C440.442 254.795 448.333 249.302 446.259 245.577Z" fill="url(#paint31_linear_406_215)"/>
<path d="M461.354 88.1047C463.859 85.9269 468.054 87.4812 469.88 90.2521C471.71 93.0229 471.92 96.5087 472.399 99.7935C472.876 103.078 473.871 106.619 476.614 108.492C480.456 111.117 486.22 108.903 488.457 104.824C490.695 100.746 490.062 95.6174 488.189 91.3592C486.317 87.101 483.343 83.439 480.806 79.5366C474.04 69.1252 470.374 56.7369 470.321 44.3272L446.086 10.1489L438.21 65.3962L459.197 94.997C459.213 94.7567 459.232 94.5164 459.247 94.2761C459.399 92.0467 459.667 89.5707 461.354 88.1047Z" fill="white"/>
<path d="M512.394 111.738L513.353 105.01L500.259 86.5444C500.481 94.0662 501.478 101.886 506.698 107.099C508.398 108.8 510.52 110.196 512.394 111.738Z" fill="white"/>
<path d="M506.699 107.102C501.474 101.886 500.483 94.0662 500.259 86.5475L470.321 44.3271C470.374 56.7369 474.039 69.1253 480.806 79.5366C483.343 83.4389 486.317 87.101 488.189 91.3592C490.062 95.6174 490.695 100.746 488.457 104.824C486.22 108.903 480.456 111.117 476.614 108.492C473.871 106.619 472.876 103.078 472.399 99.7936C471.92 96.5086 471.71 93.023 469.88 90.2521C468.051 87.4813 463.859 85.927 461.354 88.1048C459.667 89.5708 459.399 92.0466 459.247 94.276C459.232 94.5163 459.213 94.7566 459.197 94.9969L495.635 146.388C497.161 142.382 499.62 138.735 502.857 135.921C504.984 134.075 507.396 132.576 509.661 130.9L512.391 111.738C510.519 110.196 508.398 108.8 506.699 107.102Z" fill="url(#paint32_linear_406_215)"/>
<path d="M495.635 146.385L505.474 160.26L509.661 130.899C507.398 132.576 504.984 134.072 502.856 135.921C499.62 138.734 497.16 142.382 495.635 146.385Z" fill="white"/>
<path d="M62.8834 183.346C61.212 184.489 59.4828 185.707 58.53 187.491C57.5771 189.277 57.6897 191.804 59.3246 192.997C60.8284 194.092 63.0112 193.656 64.5304 192.587C66.0495 191.516 67.112 189.931 68.3388 188.535C70.96 185.554 74.3697 183.4 77.6758 181.195C78.9027 180.378 80.1357 179.535 81.0915 178.412C82.0474 177.29 82.7051 175.84 82.5711 174.371C82.0353 168.397 77.6302 172.879 75.8401 174.525C72.132 177.935 67.048 180.49 62.8834 183.346Z" fill="url(#paint33_linear_406_215)"/>
<path d="M58.8708 289.163C58.2193 289.163 57.5831 288.904 57.1113 288.426L36.7294 267.665C36.1144 267.039 35.88 266.135 36.1144 265.29C36.3459 264.443 37.0126 263.787 37.8589 263.561L62.3688 257.089C63.1695 256.876 64.0249 257.084 64.643 257.637C65.2609 258.19 65.5563 259.017 65.4344 259.836L61.3063 287.07C61.1663 287.991 60.5179 288.755 59.6289 289.041C59.3793 289.124 59.1236 289.163 58.8708 289.163ZM43.2109 267.239L57.1752 281.461L60.0034 262.804L43.2109 267.239Z" fill="url(#paint34_linear_406_215)"/>
<path d="M482.767 236.072C482.258 236.072 481.772 235.813 481.491 235.37C481.135 234.804 481.193 234.073 481.632 233.571L498.342 214.525C498.744 214.066 499.385 213.895 499.965 214.093L523.019 221.952C523.643 222.165 524.058 222.762 524.038 223.422C524.021 224.081 523.577 224.653 522.94 224.833L483.178 236.02C483.041 236.053 482.904 236.072 482.767 236.072ZM499.946 217.268L487.257 231.734L517.454 223.24L499.946 217.268Z" fill="#82FDB8"/>
<path d="M132.717 67.814C131.633 66.1076 132.142 63.8478 133.849 62.7649C140.672 58.446 146.377 59.4679 150.963 60.2891C155.141 61.0373 158.445 61.6305 162.862 58.8353C167.28 56.04 168.154 52.8038 169.261 48.7068C170.476 44.2143 171.987 38.624 178.812 34.3049C185.635 29.9858 191.339 31.0078 195.924 31.8321C200.104 32.5834 203.406 33.1734 207.821 30.3782C212.236 27.583 213.113 24.3468 214.218 20.2498C215.432 15.7573 216.942 10.1669 223.764 5.84781C230.587 1.52877 236.292 2.55074 240.876 3.37501C245.056 4.12627 248.36 4.71635 252.774 1.92113C254.482 0.838325 256.743 1.34627 257.828 3.0526C258.911 4.75893 258.403 7.01882 256.695 8.10163C249.872 12.4207 244.167 11.3987 239.583 10.5744C235.402 9.82317 232.1 9.2331 227.685 12.0283C223.271 14.8235 222.394 18.0598 221.289 22.1568C220.074 26.6492 218.565 32.2397 211.742 36.5586C204.92 40.8777 199.215 39.8558 194.63 39.0315C190.45 38.2803 187.147 37.6902 182.733 40.4853C178.316 43.2806 177.442 46.5169 176.334 50.6139C175.119 55.1062 173.608 60.6967 166.783 65.0158C159.961 69.3348 154.256 68.3128 149.671 67.4916C145.491 66.7434 142.188 66.1502 137.77 68.9455C136.063 70.0253 133.801 69.5203 132.717 67.814Z" fill="#82FDB8"/>
<path d="M273.932 94.7627C278.193 99.6171 281.053 72.2216 269.49 72.7387C257.927 73.2557 244.892 86.3832 256.786 83.7614C266.845 81.544 267.124 87.0128 273.932 94.7627Z" fill="#86E29B"/>
<path d="M322.245 48.7195C319.881 48.7195 317.491 48.0898 315.329 46.7728C309.073 42.9495 307.094 34.7555 310.921 28.502C314.747 22.2516 322.949 20.2746 329.208 24.0978C335.464 27.9211 337.443 36.1151 333.616 42.3686C331.11 46.4596 326.73 48.7195 322.245 48.7195ZM322.285 25.8528C319.053 25.8528 315.892 27.483 314.086 30.4335C311.329 34.9411 312.753 40.8538 317.267 43.6096C321.783 46.3652 327.698 44.9418 330.456 40.4311C333.215 35.9235 331.789 30.0106 327.275 27.255C325.713 26.306 323.987 25.8528 322.285 25.8528Z" fill="#FFB0EB"/>
<path d="M9.59535 180.964C7.88747 180.964 6.15829 180.51 4.59655 179.556C0.0726706 176.794 -1.35512 170.869 1.40913 166.35C4.17339 161.829 10.1038 160.403 14.6276 163.165C16.8196 164.503 18.357 166.614 18.9598 169.108C19.5625 171.602 19.1546 174.181 17.8151 176.371C16.0037 179.331 12.8375 180.964 9.59535 180.964ZM9.62274 164.436C7.28774 164.436 5.0045 165.613 3.69848 167.748C2.73342 169.326 2.44116 171.185 2.87346 172.983C3.30879 174.78 4.41694 176.305 5.99694 177.269C9.25743 179.261 13.5317 178.23 15.5258 174.973C16.4908 173.393 16.783 171.536 16.3507 169.738C15.9154 167.939 14.8073 166.416 13.2272 165.452C12.1008 164.765 10.8557 164.436 9.62274 164.436Z" fill="#FFD23D"/>
<path d="M524.852 72.4191C526.907 72.4191 528.572 70.7549 528.572 68.7022C528.572 66.6495 526.907 64.9854 524.852 64.9854C522.797 64.9854 521.132 66.6495 521.132 68.7022C521.132 70.7549 522.797 72.4191 524.852 72.4191Z" fill="url(#paint35_linear_406_215)"/>
<path d="M62.9961 120.151C65.0508 120.151 66.7163 118.487 66.7163 116.434C66.7163 114.381 65.0508 112.717 62.9961 112.717C60.9415 112.717 59.276 114.381 59.276 116.434C59.276 118.487 60.9415 120.151 62.9961 120.151Z" fill="url(#paint36_linear_406_215)"/>
<path d="M97.3087 311.029C99.3632 311.029 101.029 309.364 101.029 307.311C101.029 305.259 99.3632 303.595 97.3087 303.595C95.2541 303.595 93.5885 305.259 93.5885 307.311C93.5885 309.364 95.2541 311.029 97.3087 311.029Z" fill="url(#paint37_linear_406_215)"/>
<path d="M243.607 68.7028C245.661 68.7028 247.328 67.0386 247.328 64.9859C247.328 62.9332 245.661 61.269 243.607 61.269C241.553 61.269 239.887 62.9332 239.887 64.9859C239.887 67.0386 241.553 68.7028 243.607 68.7028Z" fill="url(#paint38_linear_406_215)"/>
<path d="M474.688 226.697C476.742 226.697 478.407 225.033 478.407 222.981C478.407 220.928 476.742 219.263 474.688 219.263C472.633 219.263 470.967 220.928 470.967 222.981C470.967 225.033 472.633 226.697 474.688 226.697Z" fill="url(#paint39_linear_406_215)"/>
<path d="M420.103 230.761C419.801 230.761 419.503 230.695 419.226 230.561L403.13 222.774C402.394 222.419 401.946 221.651 401.998 220.834C402.049 220.016 402.592 219.313 403.367 219.054L425.533 211.66C426.276 211.413 427.095 211.617 427.634 212.186C428.174 212.755 428.332 213.585 428.04 214.312L421.972 229.493C421.764 230.01 421.351 230.421 420.83 230.621C420.596 230.715 420.349 230.761 420.103 230.761ZM409.335 221.304L419.034 225.998L422.691 216.849L409.335 221.304Z" fill="url(#paint40_linear_406_215)"/>
<path d="M402.734 69.6484C422.254 67.1665 425.001 76.4433 409.639 91.3927C394.277 106.342 393.102 95.5871 396.472 86.5109C399.842 77.4349 394.811 77.3436 387.924 79.0652C381.031 80.7867 382.204 74.8526 402.734 69.6484Z" fill="#75C4FD"/>
<path d="M232.419 338C231.17 338 230.121 337.586 229.273 336.758C228.424 335.922 228 334.842 228 333.518C228 332.203 228.428 331.123 229.285 330.279C230.141 329.426 231.178 329 232.395 329C233.003 329 233.552 329.093 234.04 329.28C234.536 329.459 234.936 329.698 235.241 329.999C235.545 330.299 235.789 330.608 235.973 330.924C236.157 331.241 236.285 331.57 236.357 331.911L234.568 332.483C234.528 332.313 234.464 332.146 234.376 331.984C234.288 331.813 234.164 331.643 234.004 331.472C233.844 331.294 233.624 331.152 233.343 331.046C233.063 330.932 232.747 330.876 232.395 330.876C231.754 330.876 231.19 331.107 230.702 331.57C230.213 332.024 229.969 332.674 229.969 333.518C229.969 334.298 230.209 334.919 230.69 335.382C231.17 335.844 231.746 336.076 232.419 336.076C233.075 336.076 233.584 335.909 233.944 335.576C234.304 335.244 234.54 334.87 234.652 334.456L236.465 334.98C236.385 335.313 236.253 335.641 236.069 335.966C235.893 336.291 235.649 336.612 235.337 336.928C235.032 337.245 234.624 337.505 234.112 337.708C233.608 337.903 233.043 338 232.419 338Z" fill="url(#paint41_linear_406_215)"/>
<path d="M239.907 331.558C239.418 332.004 239.174 332.65 239.174 333.494C239.174 334.338 239.418 334.984 239.907 335.43C240.403 335.877 240.979 336.1 241.636 336.1C242.292 336.1 242.865 335.877 243.353 335.43C243.841 334.984 244.085 334.338 244.085 333.494C244.085 332.65 243.841 332.004 243.353 331.558C242.865 331.103 242.292 330.876 241.636 330.876C240.979 330.876 240.403 331.103 239.907 331.558ZM237.205 333.506C237.205 332.166 237.633 331.083 238.49 330.254C239.354 329.418 240.403 329 241.636 329C242.869 329 243.913 329.418 244.77 330.254C245.626 331.091 246.055 332.175 246.055 333.506C246.055 334.838 245.626 335.922 244.77 336.758C243.913 337.586 242.869 338 241.636 338C240.403 338 239.354 337.586 238.49 336.758C237.633 335.922 237.205 334.838 237.205 333.506Z" fill="url(#paint42_linear_406_215)"/>
<path d="M252.978 337.817H247.407V329.183H249.304V335.978H252.978V337.817Z" fill="url(#paint43_linear_406_215)"/>
<path d="M259.779 337.817H254.208V329.183H256.105V335.978H259.779V337.817Z" fill="url(#paint44_linear_406_215)"/>
<path d="M266.736 337.817L266.124 336.064H262.834L262.221 337.817H260.228L263.434 329.183H265.631L268.801 337.817H266.736ZM264.503 331.326L263.458 334.31H265.523L264.503 331.326Z" fill="url(#paint45_linear_406_215)"/>
<path d="M269.851 329.183H273.033C273.857 329.183 274.505 329.398 274.978 329.828C275.45 330.258 275.686 330.815 275.686 331.497C275.686 331.927 275.566 332.313 275.326 332.654C275.094 332.995 274.798 333.226 274.437 333.348C274.854 333.445 275.21 333.677 275.506 334.042C275.802 334.399 275.95 334.842 275.95 335.369C275.95 336.084 275.702 336.673 275.206 337.135C274.718 337.59 274.077 337.817 273.285 337.817H269.851V329.183ZM271.7 332.641H272.732C273.069 332.641 273.333 332.56 273.525 332.398C273.725 332.227 273.825 331.996 273.825 331.704C273.825 331.419 273.729 331.196 273.537 331.034C273.345 330.863 273.069 330.778 272.708 330.778H271.7V332.641ZM271.7 336.246H272.888C273.257 336.246 273.545 336.157 273.753 335.978C273.961 335.792 274.065 335.544 274.065 335.235C274.065 334.935 273.961 334.691 273.753 334.505C273.545 334.318 273.257 334.225 272.888 334.225H271.7V336.246Z" fill="url(#paint46_linear_406_215)"/>
<path d="M279.471 331.558C278.983 332.004 278.738 332.65 278.738 333.494C278.738 334.338 278.983 334.984 279.471 335.43C279.967 335.877 280.544 336.1 281.2 336.1C281.856 336.1 282.429 335.877 282.917 335.43C283.405 334.984 283.65 334.338 283.65 333.494C283.65 332.65 283.405 332.004 282.917 331.558C282.429 331.103 281.856 330.876 281.2 330.876C280.544 330.876 279.967 331.103 279.471 331.558ZM276.769 333.506C276.769 332.166 277.197 331.083 278.054 330.254C278.919 329.418 279.967 329 281.2 329C282.433 329 283.477 329.418 284.334 330.254C285.19 331.091 285.619 332.175 285.619 333.506C285.619 334.838 285.19 335.922 284.334 336.758C283.477 337.586 282.433 338 281.2 338C279.967 338 278.919 337.586 278.054 336.758C277.197 335.922 276.769 334.838 276.769 333.506Z" fill="url(#paint47_linear_406_215)"/>
<path d="M291.065 337.817L289.54 334.602H288.868V337.817H286.971V329.183H290.345C291.169 329.183 291.834 329.438 292.338 329.95C292.85 330.461 293.107 331.107 293.107 331.886C293.107 332.471 292.959 332.978 292.662 333.409C292.366 333.831 291.954 334.135 291.426 334.322L293.155 337.817H291.065ZM288.868 332.946H289.985C290.369 332.946 290.665 332.853 290.873 332.666C291.081 332.471 291.185 332.215 291.185 331.899C291.185 331.574 291.081 331.318 290.873 331.131C290.665 330.945 290.369 330.851 289.985 330.851H288.868V332.946Z" fill="url(#paint48_linear_406_215)"/>
<path d="M300.203 337.817L299.59 336.064H296.3L295.688 337.817H293.694L296.9 329.183H299.098L302.268 337.817H300.203ZM297.969 331.326L296.924 334.31H298.99L297.969 331.326Z" fill="url(#paint49_linear_406_215)"/>
<path d="M308.979 331.022H306.35V337.817H304.453V331.022H301.835V329.183H308.979V331.022Z" fill="url(#paint50_linear_406_215)"/>
<path d="M312.051 337.817H310.13V329.183H312.051V337.817Z" fill="url(#paint51_linear_406_215)"/>
<path d="M316.103 331.558C315.615 332.004 315.371 332.65 315.371 333.494C315.371 334.338 315.615 334.984 316.103 335.43C316.6 335.877 317.176 336.1 317.833 336.1C318.489 336.1 319.061 335.877 319.55 335.43C320.038 334.984 320.282 334.338 320.282 333.494C320.282 332.65 320.038 332.004 319.55 331.558C319.061 331.103 318.489 330.876 317.833 330.876C317.176 330.876 316.6 331.103 316.103 331.558ZM313.402 333.506C313.402 332.166 313.83 331.083 314.687 330.254C315.551 329.418 316.6 329 317.833 329C319.065 329 320.11 329.418 320.967 330.254C321.823 331.091 322.251 332.175 322.251 333.506C322.251 334.838 321.823 335.922 320.967 336.758C320.11 337.586 319.065 338 317.833 338C316.6 338 315.551 337.586 314.687 336.758C313.83 335.922 313.402 334.838 313.402 333.506Z" fill="url(#paint52_linear_406_215)"/>
<path d="M331 337.817H328.995L325.489 332.142V337.817H323.603V329.183H325.909L329.103 334.432V329.183H331V337.817Z" fill="url(#paint53_linear_406_215)"/>
<defs>
<linearGradient id="paint0_linear_406_215" x1="333.081" y1="56.0226" x2="501.898" y2="56.0226" gradientUnits="userSpaceOnUse">
<stop stop-color="#FFE466"/>
<stop offset="1" stop-color="#FFAFEA"/>
</linearGradient>
<linearGradient id="paint1_linear_406_215" x1="338.759" y1="243.681" x2="414.282" y2="243.681" gradientUnits="userSpaceOnUse">
<stop stop-color="#FFE466"/>
<stop offset="1" stop-color="#FFAFEA"/>
</linearGradient>
<linearGradient id="paint2_linear_406_215" x1="333.078" y1="224.514" x2="367.285" y2="213.971" gradientUnits="userSpaceOnUse">
<stop stop-color="#FFE466"/>
<stop offset="1" stop-color="#FFAFEA"/>
</linearGradient>
<linearGradient id="paint3_linear_406_215" x1="446.597" y1="153.45" x2="493.14" y2="153.45" gradientUnits="userSpaceOnUse">
<stop stop-color="#FFE466"/>
<stop offset="1" stop-color="#FFAFEA"/>
</linearGradient>
<linearGradient id="paint4_linear_406_215" x1="44.3143" y1="228.332" x2="78.2154" y2="228.332" gradientUnits="userSpaceOnUse">
<stop stop-color="#75C3FC"/>
<stop offset="0.0929" stop-color="#81C2F6"/>
<stop offset="1" stop-color="#F0B8BD"/>
</linearGradient>
<linearGradient id="paint5_linear_406_215" x1="1.33798" y1="246.705" x2="62.6305" y2="246.705" gradientUnits="userSpaceOnUse">
<stop stop-color="#75C3FC"/>
<stop offset="0.0929" stop-color="#81C2F6"/>
<stop offset="1" stop-color="#F0B8BD"/>
</linearGradient>
<linearGradient id="paint6_linear_406_215" x1="102.453" y1="113.417" x2="232.814" y2="113.417" gradientUnits="userSpaceOnUse">
<stop stop-color="#75C3FC"/>
<stop offset="0.0929" stop-color="#81C2F6"/>
<stop offset="1" stop-color="#F0B8BD"/>
</linearGradient>
<linearGradient id="paint7_linear_406_215" x1="497.407" y1="211.668" x2="399.341" y2="211.668" gradientUnits="userSpaceOnUse">
<stop stop-color="#FFE466"/>
<stop offset="1" stop-color="#FFAFEA"/>
</linearGradient>
<linearGradient id="paint8_linear_406_215" x1="232.289" y1="240.838" x2="130.461" y2="339.546" gradientUnits="userSpaceOnUse">
<stop stop-color="#FFE466"/>
<stop offset="1" stop-color="#FFAFEA"/>
</linearGradient>
<linearGradient id="paint9_linear_406_215" x1="201.981" y1="345.726" x2="92.8488" y2="345.726" gradientUnits="userSpaceOnUse">
<stop stop-color="#FFE466"/>
<stop offset="1" stop-color="#FFAFEA"/>
</linearGradient>
<linearGradient id="paint10_linear_406_215" x1="313.861" y1="379.21" x2="313.861" y2="577.361" gradientUnits="userSpaceOnUse">
<stop stop-color="#CFD3D6"/>
<stop offset="0.6349" stop-color="#F3F4F5"/>
<stop offset="1" stop-color="white" stop-opacity="0"/>
</linearGradient>
<linearGradient id="paint11_linear_406_215" x1="294.181" y1="386.197" x2="294.181" y2="545.51" gradientUnits="userSpaceOnUse">
<stop stop-color="#BBC0C5"/>
<stop offset="0.5694" stop-color="#CFD3D6"/>
<stop offset="0.9989" stop-color="white" stop-opacity="0"/>
</linearGradient>
<linearGradient id="paint12_linear_406_215" x1="234.359" y1="206.266" x2="234.359" y2="383.04" gradientUnits="userSpaceOnUse">
<stop stop-color="#BBC0C5"/>
<stop offset="0.5694" stop-color="#CFD3D6"/>
<stop offset="0.9989" stop-color="white" stop-opacity="0"/>
</linearGradient>
<linearGradient id="paint13_linear_406_215" x1="217.154" y1="225.225" x2="115.327" y2="323.934" gradientUnits="userSpaceOnUse">
<stop stop-color="#FFE466"/>
<stop offset="1" stop-color="#FFAFEA"/>
</linearGradient>
<linearGradient id="paint14_linear_406_215" x1="281.419" y1="344.595" x2="281.419" y2="383.649" gradientUnits="userSpaceOnUse">
<stop stop-color="#534BB1"/>
<stop offset="1" stop-color="#551BF9"/>
</linearGradient>
<linearGradient id="paint15_linear_406_215" x1="281.835" y1="351.658" x2="281.835" y2="377.417" gradientUnits="userSpaceOnUse">
<stop stop-color="white"/>
<stop offset="1" stop-color="white" stop-opacity="0.82"/>
</linearGradient>
<linearGradient id="paint16_linear_406_215" x1="214.956" y1="225.039" x2="340.852" y2="225.039" gradientUnits="userSpaceOnUse">
<stop stop-color="#FFE466"/>
<stop offset="1" stop-color="#FFAFEA"/>
</linearGradient>
<linearGradient id="paint17_linear_406_215" x1="214.959" y1="389.319" x2="340.851" y2="389.319" gradientUnits="userSpaceOnUse">
<stop stop-color="#FFE466"/>
<stop offset="1" stop-color="#FFAFEA"/>
</linearGradient>
<linearGradient id="paint18_linear_406_215" x1="345.54" y1="209.643" x2="211.088" y2="209.643" gradientUnits="userSpaceOnUse">
<stop stop-color="#75C3FC"/>
<stop offset="0.0929" stop-color="#81C2F6"/>
<stop offset="1" stop-color="#F0B8BD"/>
</linearGradient>
<linearGradient id="paint19_linear_406_215" x1="345.542" y1="423.547" x2="211.088" y2="423.547" gradientUnits="userSpaceOnUse">
<stop stop-color="#75C3FC"/>
<stop offset="0.0929" stop-color="#81C2F6"/>
<stop offset="1" stop-color="#F0B8BD"/>
</linearGradient>
<linearGradient id="paint20_linear_406_215" x1="221.882" y1="299.192" x2="313.751" y2="299.192" gradientUnits="userSpaceOnUse">
<stop stop-color="#FFE466"/>
<stop offset="1" stop-color="#FFAFEA"/>
</linearGradient>
<linearGradient id="paint21_linear_406_215" x1="250.629" y1="265.794" x2="340.851" y2="265.794" gradientUnits="userSpaceOnUse">
<stop stop-color="#FFE466"/>
<stop offset="1" stop-color="#FFAFEA"/>
</linearGradient>
<linearGradient id="paint22_linear_406_215" x1="206.396" y1="379.21" x2="206.396" y2="577.362" gradientUnits="userSpaceOnUse">
<stop stop-color="#CFD3D6"/>
<stop offset="0.6349" stop-color="#F3F4F5"/>
<stop offset="1" stop-color="white" stop-opacity="0"/>
</linearGradient>
<linearGradient id="paint23_linear_406_215" x1="205.949" y1="379.21" x2="205.949" y2="577.362" gradientUnits="userSpaceOnUse">
<stop stop-color="#CFD3D6"/>
<stop offset="0.6349" stop-color="#F3F4F5"/>
<stop offset="1" stop-color="white" stop-opacity="0"/>
</linearGradient>
<linearGradient id="paint24_linear_406_215" x1="206.842" y1="379.21" x2="206.842" y2="577.361" gradientUnits="userSpaceOnUse">
<stop stop-color="#CFD3D6"/>
<stop offset="0.6349" stop-color="#F3F4F5"/>
<stop offset="1" stop-color="white" stop-opacity="0"/>
</linearGradient>
<linearGradient id="paint25_linear_406_215" x1="356.93" y1="386.197" x2="356.93" y2="545.511" gradientUnits="userSpaceOnUse">
<stop stop-color="#BBC0C5"/>
<stop offset="0.5694" stop-color="#CFD3D6"/>
<stop offset="0.9989" stop-color="white" stop-opacity="0"/>
</linearGradient>
<linearGradient id="paint26_linear_406_215" x1="223.227" y1="231.489" x2="121.4" y2="330.199" gradientUnits="userSpaceOnUse">
<stop stop-color="#FFE466"/>
<stop offset="1" stop-color="#FFAFEA"/>
</linearGradient>
<linearGradient id="paint27_linear_406_215" x1="123.442" y1="352.688" x2="77.2171" y2="352.688" gradientUnits="userSpaceOnUse">
<stop stop-color="#FFE466"/>
<stop offset="1" stop-color="#FFAFEA"/>
</linearGradient>
<linearGradient id="paint28_linear_406_215" x1="28.029" y1="196.244" x2="97.3093" y2="196.244" gradientUnits="userSpaceOnUse">
<stop stop-color="#75C3FC"/>
<stop offset="0.0929" stop-color="#81C2F6"/>
<stop offset="1" stop-color="#F0B8BD"/>
</linearGradient>
<linearGradient id="paint29_linear_406_215" x1="97.1801" y1="142.414" x2="132.945" y2="142.414" gradientUnits="userSpaceOnUse">
<stop stop-color="#75C3FC"/>
<stop offset="0.0929" stop-color="#81C2F6"/>
<stop offset="1" stop-color="#F0B8BD"/>
</linearGradient>
<linearGradient id="paint30_linear_406_215" x1="145.06" y1="371.83" x2="123.071" y2="371.83" gradientUnits="userSpaceOnUse">
<stop stop-color="#FFE466"/>
<stop offset="1" stop-color="#FFAFEA"/>
</linearGradient>
<linearGradient id="paint31_linear_406_215" x1="447.124" y1="248.858" x2="410.5" y2="257.248" gradientUnits="userSpaceOnUse">
<stop stop-color="#FFE466"/>
<stop offset="1" stop-color="#FFAFEA"/>
</linearGradient>
<linearGradient id="paint32_linear_406_215" x1="459.197" y1="95.3561" x2="512.394" y2="95.3561" gradientUnits="userSpaceOnUse">
<stop stop-color="#FFE466"/>
<stop offset="1" stop-color="#FFAFEA"/>
</linearGradient>
<linearGradient id="paint33_linear_406_215" x1="57.9273" y1="182.498" x2="82.5872" y2="182.498" gradientUnits="userSpaceOnUse">
<stop stop-color="#75C3FC"/>
<stop offset="0.0929" stop-color="#81C2F6"/>
<stop offset="1" stop-color="#F0B8BD"/>
</linearGradient>
<linearGradient id="paint34_linear_406_215" x1="48.9432" y1="258.661" x2="62.2605" y2="288.029" gradientUnits="userSpaceOnUse">
<stop stop-color="#FFE466"/>
<stop offset="1" stop-color="#FFAFEA"/>
</linearGradient>
<linearGradient id="paint35_linear_406_215" x1="521.133" y1="68.7018" x2="528.572" y2="68.7018" gradientUnits="userSpaceOnUse">
<stop stop-color="#75C3FC"/>
<stop offset="1" stop-color="#75C3FC"/>
</linearGradient>
<linearGradient id="paint36_linear_406_215" x1="59.2776" y1="116.436" x2="66.7174" y2="116.436" gradientUnits="userSpaceOnUse">
<stop stop-color="#75C3FC"/>
<stop offset="1" stop-color="#75C3FC"/>
</linearGradient>
<linearGradient id="paint37_linear_406_215" x1="93.5893" y1="307.31" x2="101.029" y2="307.31" gradientUnits="userSpaceOnUse">
<stop stop-color="#75C3FC"/>
<stop offset="1" stop-color="#75C3FC"/>
</linearGradient>
<linearGradient id="paint38_linear_406_215" x1="239.886" y1="64.9858" x2="247.326" y2="64.9858" gradientUnits="userSpaceOnUse">
<stop stop-color="#75C3FC"/>
<stop offset="1" stop-color="#75C3FC"/>
</linearGradient>
<linearGradient id="paint39_linear_406_215" x1="470.97" y1="222.98" x2="478.408" y2="222.98" gradientUnits="userSpaceOnUse">
<stop stop-color="#75C3FC"/>
<stop offset="1" stop-color="#75C3FC"/>
</linearGradient>
<linearGradient id="paint40_linear_406_215" x1="401.993" y1="221.16" x2="428.184" y2="221.16" gradientUnits="userSpaceOnUse">
<stop stop-color="#75C3FC"/>
<stop offset="0.0929" stop-color="#81C2F6"/>
<stop offset="1" stop-color="#F0B8BD"/>
</linearGradient>
<linearGradient id="paint41_linear_406_215" x1="234.464" y1="334.541" x2="342.932" y2="340.104" gradientUnits="userSpaceOnUse">
<stop stop-color="#F5841F"/>
<stop offset="1" stop-color="#533DC6"/>
</linearGradient>
<linearGradient id="paint42_linear_406_215" x1="234.464" y1="334.541" x2="342.932" y2="340.104" gradientUnits="userSpaceOnUse">
<stop stop-color="#F5841F"/>
<stop offset="1" stop-color="#533DC6"/>
</linearGradient>
<linearGradient id="paint43_linear_406_215" x1="234.464" y1="334.541" x2="342.932" y2="340.104" gradientUnits="userSpaceOnUse">
<stop stop-color="#F5841F"/>
<stop offset="1" stop-color="#533DC6"/>
</linearGradient>
<linearGradient id="paint44_linear_406_215" x1="234.464" y1="334.541" x2="342.932" y2="340.104" gradientUnits="userSpaceOnUse">
<stop stop-color="#F5841F"/>
<stop offset="1" stop-color="#533DC6"/>
</linearGradient>
<linearGradient id="paint45_linear_406_215" x1="234.464" y1="334.541" x2="342.932" y2="340.104" gradientUnits="userSpaceOnUse">
<stop stop-color="#F5841F"/>
<stop offset="1" stop-color="#533DC6"/>
</linearGradient>
<linearGradient id="paint46_linear_406_215" x1="234.464" y1="334.541" x2="342.932" y2="340.104" gradientUnits="userSpaceOnUse">
<stop stop-color="#F5841F"/>
<stop offset="1" stop-color="#533DC6"/>
</linearGradient>
<linearGradient id="paint47_linear_406_215" x1="234.464" y1="334.541" x2="342.932" y2="340.104" gradientUnits="userSpaceOnUse">
<stop stop-color="#F5841F"/>
<stop offset="1" stop-color="#533DC6"/>
</linearGradient>
<linearGradient id="paint48_linear_406_215" x1="234.464" y1="334.541" x2="342.932" y2="340.104" gradientUnits="userSpaceOnUse">
<stop stop-color="#F5841F"/>
<stop offset="1" stop-color="#533DC6"/>
</linearGradient>
<linearGradient id="paint49_linear_406_215" x1="234.464" y1="334.541" x2="342.932" y2="340.104" gradientUnits="userSpaceOnUse">
<stop stop-color="#F5841F"/>
<stop offset="1" stop-color="#533DC6"/>
</linearGradient>
<linearGradient id="paint50_linear_406_215" x1="234.464" y1="334.541" x2="342.932" y2="340.104" gradientUnits="userSpaceOnUse">
<stop stop-color="#F5841F"/>
<stop offset="1" stop-color="#533DC6"/>
</linearGradient>
<linearGradient id="paint51_linear_406_215" x1="234.464" y1="334.541" x2="342.932" y2="340.104" gradientUnits="userSpaceOnUse">
<stop stop-color="#F5841F"/>
<stop offset="1" stop-color="#533DC6"/>
</linearGradient>
<linearGradient id="paint52_linear_406_215" x1="234.464" y1="334.541" x2="342.932" y2="340.104" gradientUnits="userSpaceOnUse">
<stop stop-color="#F5841F"/>
<stop offset="1" stop-color="#533DC6"/>
</linearGradient>
<linearGradient id="paint53_linear_406_215" x1="234.464" y1="334.541" x2="342.932" y2="340.104" gradientUnits="userSpaceOnUse">
<stop stop-color="#F5841F"/>
<stop offset="1" stop-color="#533DC6"/>
</linearGradient>
</defs>
</svg>
